# xmcd CD database file
#
# Track frame offsets:
#	150
#	14619
#	29680
#	41967
#	55594
#	70038
#	84021
#	97879
#	111496
#	125569
#	139425
#	154680
#	168853
#	182677
#	197027
#	209594
#	224674
#	238994
#	249578
#	263312
#
# Disc length: 3685 seconds
#
# Revision: 1
# Processed by: cddbd v1.5.1PL0 Copyright (c) Steve Scherf et al.
# Submitted via: jetAudio 5
#
DISCID=250e6314
DTITLE=Various Artist - The Best There Ever Was
DYEAR=1900
DGENRE=
TTITLE0=Dough Roller Blues
TTITLE1=Big Road Blues
TTITLE2=My Black Mamma - Part 1
TTITLE3=Ain't No Tellin
TTITLE4=Cypress Grove
TTITLE5=I Know His Blood Can Make Me Whole
TTITLE6=Mama, Tain't Long Fo'Day
TTITLE7=Barefoot Blues
TTITLE8=I'll Go With Her Blues
TTITLE9=Squabblin Blues
TTITLE10=It Won't Be Long
TTITLE11=What's The Matter Blues
TTITLE12=Last Kind Word Blues
TTITLE13=Bullfrog Blues
TTITLE14=You Gonna Quit Me Blues
TTITLE15=The Gone Dead Train
TTITLE16=Outdoor Blues
TTITLE17=Prison Cell Blues
TTITLE18=Graveyard Digger's Blues
TTITLE19=Big Chief Blues
EXTD=
EXTT0=
EXTT1=
EXTT2=
EXTT3=
EXTT4=
EXTT5=
EXTT6=
EXTT7=
EXTT8=
EXTT9=
EXTT10=
EXTT11=
EXTT12=
EXTT13=
EXTT14=
EXTT15=
EXTT16=
EXTT17=
EXTT18=
EXTT19=
PLAYORDER=
